<?xml version="1.0" encoding="utf-8"?>
<!-- Generator: Adobe Illustrator 28.2.0, SVG Export Plug-In . SVG Version: 6.00 Build 0)  -->
<svg version="1.1" id="Layer_1" xmlns="http://www.w3.org/2000/svg" xmlns:xlink="http://www.w3.org/1999/xlink" x="0px" y="0px"
	 viewBox="0 0 106.04 35" style="enable-background:new 0 0 106.04 35;" xml:space="preserve">
<style type="text/css">
	.st0{fill:#5B68E7;}
	.st1{fill:#FFFFFF;}
	.st2{fill:#3E3D45;}
</style>
<g>
	<g>
		<path class="st0" d="M27,35H8c-4.42,0-8-3.58-8-8V8c0-4.42,3.58-8,8-8h19c4.42,0,8,3.58,8,8v19C35,31.42,31.42,35,27,35z"/>
	</g>
</g>
<g>
	<path class="st1" d="M24.02,15.63c-1.15-0.14-2.27,0.2-2.27,0.23v-0.49l6.66-5.74V7.28H15.46v0h-2.41c-3.5,0-4.85,2.79-4.85,5.2
		v0.89H5.93v2.81H8.2v11.2h3.1v-11.2h4.13v-2.81H11.3v-1.35c0-0.95,0.52-1.92,1.67-1.92h2.49v0h8.21l-5.51,4.77v2.41h3.65
		c2.21,0,4.16,1.18,4.16,3.7c0,2.64-1.78,3.93-4.25,3.93c-2.41,0-4.25-1.29-4.25-3.3c0-0.09,0-0.17,0-0.26h-3.1
		c0,0.09,0,0.17,0,0.26c0,3.39,2.84,6.12,7.38,6.12c4.51,0,7.32-2.73,7.32-6.43C29.07,17.41,26.02,15.89,24.02,15.63z"/>
</g>
<g>
	<path class="st2" d="M49.81,8.95h2.02v2.35h-2.09c-0.96,0-1.39,0.82-1.39,1.61v1.13h3.46v2.35h-3.46v9.36h-2.59v-9.36h-1.9v-2.35
		h1.9V13.3C45.76,11.28,46.89,8.95,49.81,8.95z"/>
	<path class="st2" d="M65.77,25.78H63.9c-0.94,0-1.49-0.65-1.49-1.49c0-1.01,0.38-1.87,0.38-1.87h-0.38c0,0-0.58,1.8-2.02,2.71
		c-1.22,0.79-2.64,1.03-4.1,0.86c-1.61-0.17-3.12-1.46-3.12-3.38c0-2.09,1.39-2.98,2.81-3.31c1.54-0.36,2.88-0.38,3.96-0.6
		c0.89-0.19,1.85-0.34,1.61-1.2c-0.22-0.91-1.3-1.61-2.78-1.61c-1.9,0-2.98,1.08-2.98,2.28h-2.52c0-2.18,1.82-4.42,5.54-4.42
		c3.7,0,5.5,2.21,5.5,4.56v4.61c0,0.26,0.22,0.5,0.53,0.5h0.94V25.78z M57.61,20.33c-0.91,0.14-1.97,0.77-1.97,1.87
		c0,0.98,0.82,1.66,1.73,1.82c0.94,0.1,1.58,0.07,2.57-0.46c1.01-0.55,1.58-1.46,1.7-2.33c0.05-0.29,0.07-0.65,0.07-0.98v-0.86
		C61.33,19.68,60.11,19.95,57.61,20.33z"/>
	<path class="st2" d="M67.84,22.01v-5.62h-1.9v-2.35h1.9V8.95h2.59v5.09h3.48v2.35h-3.48v5.59c0,0.79,0.62,1.42,1.39,1.42
		c0.41,0,1.9,0,2.09,0v2.35c-0.67,0-0.34,0-2.33,0C69.09,25.76,67.84,23.88,67.84,22.01z"/>
	<path class="st2" d="M80.97,23.91c1.68,0,2.59-0.94,3-2.09h2.52c-0.38,1.63-1.78,4.22-5.5,4.22c-4.2,0-5.78-3.31-5.78-6.14
		c0-2.83,1.58-6.14,5.78-6.14c4.1,0,5.93,3.14,5.74,6.72h-9.1C77.73,21.82,78.49,23.91,80.97,23.91z M77.7,18.89l6.53,0.02
		c-0.14-1.3-1.13-3.02-3.26-3.02C78.85,15.89,77.89,17.52,77.7,18.89z"/>
	<path class="st2" d="M91.53,8.95v16.8h-2.59V8.95H91.53z"/>
	<path class="st2" d="M106.05,20.67c0,3.1-2.35,5.38-6.12,5.38c-3.79,0-6.17-2.28-6.17-5.11c0-0.07,0-0.14,0-0.22h2.59
		c0,0.07,0,0.14,0,0.22c0,1.68,1.54,2.76,3.55,2.76c2.06,0,3.55-1.08,3.55-3.29c0-2.11-1.63-3.1-3.48-3.1h-3.05v-2.02l4.61-3.98
		h-6.87V8.95h10.83v1.97l-5.57,4.8v0.41c0-0.02,0.94-0.31,1.9-0.19C103.5,16.15,106.05,17.43,106.05,20.67z"/>
</g>
</svg>
